<?xml version="1.0" standalone="no"?>
<!DOCTYPE svg PUBLIC "-//W3C//DTD SVG 20010904//EN"
 "http://www.w3.org/TR/2001/REC-SVG-20010904/DTD/svg10.dtd">
<svg version="1.0" xmlns="http://www.w3.org/2000/svg"
 width="225.000000pt" height="225.000000pt" viewBox="0 0 225.000000 225.000000"
 preserveAspectRatio="xMidYMid meet">

<g transform="translate(0.000000,225.000000) scale(0.100000,-0.100000)"
fill="#000000" stroke="none">
<path d="M825 1970 c-507 -80 -832 -569 -705 -1064 63 -248 246 -460 485 -564
159 -68 370 -86 535 -43 267 69 490 261 589 509 8 17 19 32 26 32 7 0 41 -38
76 -84 34 -47 74 -90 89 -96 32 -13 232 -9 237 5 1 6 -78 109 -177 230 -106
129 -179 226 -177 236 2 8 82 111 178 228 96 117 174 217 174 224 0 16 -199
22 -235 7 -15 -6 -55 -49 -89 -95 -35 -47 -67 -87 -72 -91 -5 -3 -23 25 -40
63 -90 198 -261 364 -464 450 -108 46 -314 71 -430 53z m303 -700 c4 -407 -7
-463 -102 -547 -75 -66 -139 -78 -413 -74 -80 1 -103 14 -96 55 8 42 26 48
141 50 94 1 114 4 157 27 41 21 55 35 80 84 l30 59 0 315 c0 174 4 322 8 329
6 9 34 12 100 10 l92 -3 3 -305z m305 292 c28 -17 346 -419 347 -437 0 -12
-334 -444 -358 -462 -19 -16 -188 -18 -197 -3 -3 5 71 105 164 221 94 116 171
219 171 228 0 9 -79 112 -176 229 -108 131 -174 219 -170 228 9 22 182 20 219
-4z"/>
</g>
</svg>
